<svg width="182" height="49" viewBox="0 0 182 49" fill="none" xmlns="http://www.w3.org/2000/svg">
<path d="M20 25L12.5 29.3301L12.5 20.6699L20 25Z" fill="#FEFEFE"/>
<line x1="9.38302" y1="8.67861" x2="15.8109" y2="16.3391" stroke="#FEFEFE"/>
<rect x="1" y="16" width="28" height="18" rx="4" stroke="#FEFEFE" stroke-width="2"/>
<line x1="14.617" y1="16.339" x2="21.0449" y2="8.67859" stroke="#FEFEFE"/>
<line x1="7" y1="38" x2="23" y2="38" stroke="#FEFEFE" stroke-width="2"/>
<g filter="url(#filter0_d_45_21)">
<path d="M112.112 38H106.244V26.912H97.676V38H91.844V12.296H97.676V22.376H106.244V12.296H112.112V38ZM140.037 25.112C140.037 27.104 139.809 28.916 139.353 30.548C138.897 32.156 138.201 33.548 137.265 34.724C136.329 35.9 135.117 36.8 133.629 37.424C132.165 38.048 130.425 38.36 128.409 38.36C126.417 38.36 124.689 38.048 123.225 37.424C121.761 36.776 120.549 35.876 119.589 34.724C118.653 33.548 117.945 32.144 117.465 30.512C117.009 28.88 116.781 27.068 116.781 25.076C116.781 22.412 117.189 20.096 118.005 18.128C118.845 16.16 120.129 14.636 121.857 13.556C123.585 12.452 125.781 11.9 128.445 11.9C131.133 11.9 133.329 12.452 135.033 13.556C136.737 14.636 137.997 16.172 138.813 18.164C139.629 20.132 140.037 22.448 140.037 25.112ZM122.901 25.112C122.901 26.912 123.081 28.46 123.441 29.756C123.825 31.052 124.425 32.048 125.241 32.744C126.057 33.44 127.113 33.788 128.409 33.788C129.729 33.788 130.785 33.44 131.577 32.744C132.393 32.048 132.981 31.052 133.341 29.756C133.725 28.46 133.917 26.912 133.917 25.112C133.917 22.4 133.485 20.276 132.621 18.74C131.781 17.204 130.389 16.436 128.445 16.436C127.125 16.436 126.057 16.784 125.241 17.48C124.425 18.176 123.825 19.172 123.441 20.468C123.081 21.764 122.901 23.312 122.901 25.112Z" fill="#96E532"/>
<path d="M63.256 38H56.668L48.676 24.968V38H42.844V12.296H48.676V24.752L56.452 12.296H62.788L54.652 24.644L63.256 38ZM66.012 12.296H71.34V24.716C71.34 25.316 71.328 25.988 71.304 26.732C71.304 27.476 71.292 28.208 71.268 28.928C71.244 29.624 71.22 30.236 71.196 30.764C71.172 31.268 71.136 31.616 71.088 31.808H71.232L81.78 12.296H88.584V38H83.256V25.652C83.256 25.004 83.268 24.296 83.292 23.528C83.316 22.736 83.34 21.98 83.364 21.26C83.388 20.54 83.412 19.916 83.436 19.388C83.484 18.836 83.52 18.476 83.544 18.308H83.436L72.852 38H66.012V12.296Z" fill="white"/>
</g>
<path d="M172 25L164.5 29.3301V20.6699L172 25Z" fill="#96E532"/>
<line x1="161.383" y1="8.67861" x2="167.811" y2="16.3391" stroke="#96E532"/>
<rect x="153" y="16" width="28" height="18" rx="4" stroke="#96E532" stroke-width="2"/>
<line x1="166.617" y1="16.339" x2="173.045" y2="8.67859" stroke="#96E532"/>
<line x1="159" y1="38" x2="175" y2="38" stroke="#96E532" stroke-width="2"/>
<defs>
<filter id="filter0_d_45_21" x="41.844" y="11.9" width="105.193" height="34.46" filterUnits="userSpaceOnUse" color-interpolation-filters="sRGB">
<feFlood flood-opacity="0" result="BackgroundImageFix"/>
<feColorMatrix in="SourceAlpha" type="matrix" values="0 0 0 0 0 0 0 0 0 0 0 0 0 0 0 0 0 0 127 0" result="hardAlpha"/>
<feOffset dx="3" dy="4"/>
<feGaussianBlur stdDeviation="2"/>
<feComposite in2="hardAlpha" operator="out"/>
<feColorMatrix type="matrix" values="0 0 0 0 0 0 0 0 0 0 0 0 0 0 0 0 0 0 0.25 0"/>
<feBlend mode="normal" in2="BackgroundImageFix" result="effect1_dropShadow_45_21"/>
<feBlend mode="normal" in="SourceGraphic" in2="effect1_dropShadow_45_21" result="shape"/>
</filter>
</defs>
</svg>
